<?xml version="1.0" encoding="utf-8"?>
<!-- Generator: Adobe Illustrator 25.2.3, SVG Export Plug-In . SVG Version: 6.00 Build 0)  -->
<svg version="1.1" id="Шар_1" xmlns="http://www.w3.org/2000/svg" xmlns:xlink="http://www.w3.org/1999/xlink" x="0px" y="0px"
	 viewBox="0 0 175 18.1" style="enable-background:new 0 0 175 18.1;" xml:space="preserve">
<style type="text/css">
	.st0{fill:#FFF75F;}
</style>
<g>
	<path class="st0" d="M14.1,15.9h-3.3L5.7,9.1H4.6v6.9H1.8V2.2h2.8v6.1L9,2.2h3.3L7.3,9.1H9L14.1,15.9z"/>
	<path class="st0" d="M21.2,12.3c0,2.1-1.4,3.6-3.3,3.6h-2.9v-2.8h2.9v0.4c0.6,0,1-0.6,1-1.3s-0.4-1.3-1-1.3V9.4
		c-2,0-3.3-1.6-3.3-3.6s1.4-3.6,3.3-3.6h2.9v2.8h-2.9V4.5c-0.6,0-1,0.6-1,1.3s0.4,1.3,1,1.3v1.6C19.8,8.7,21.2,10.2,21.2,12.3z"/>
	<path class="st0" d="M25.1,4.9v2.5h2.8v2.8h-2.8v2.9h4.1v2.8h-6.9V2.2h6.9v2.8H25.1z"/>
	<path class="st0" d="M47.3,2.2v13.7h-5.1l-9-12.3v12.3h-2.8V2.2h5l9.1,12.4V2.2H47.3z"/>
	<path class="st0" d="M48.8,2.2h2.8v13.7h-2.8V2.2z"/>
	<path class="st0" d="M53.1,2.2h2.8v13.7h-2.8V2.2z"/>
	<path class="st0" d="M69.6,2.2v13.7h-2.8v-4.1h-4.2l-3.1,4.1h-3.3l5.1-6.9h-2.3l5.1-6.9C64.2,2.2,69.6,2.2,69.6,2.2z M62.4,9h4.4
		v-6L62.4,9z"/>
	<path class="st0" d="M87,15.9H76.1V2.2H79c1.9,0,3.3,1.6,3.3,3.6c0,1.4-0.7,2.7-1.8,3.2h1.3L87,15.9z M78.8,4.6v2.6H79
		c0.6,0,1-0.6,1-1.3s-0.4-1.3-1-1.3L78.8,4.6L78.8,4.6z M81.9,13.6l-3-4.1h0v4.1H81.9z"/>
	<path class="st0" d="M99,2.2v6.9c0,4.1-2.8,6.9-6.9,6.9s-6.9-2.8-6.9-6.9V2.2H88v6.9c0,2.7,1.4,4.1,4.1,4.1s4.1-1.5,4.1-4.1V2.2H99
		z"/>
	<path class="st0" d="M110.2,9.1c0,4.1-2.8,6.9-6.9,6.9h-2.8V2.2h2.8C107.4,2.2,110.2,4.9,110.2,9.1z M107.4,9.1
		c0-2.6-1.4-4.1-4.1-4.1v8.2C106,13.2,107.4,11.6,107.4,9.1z"/>
	<path class="st0" d="M114.1,4.9v2.5h2.8v2.8h-2.8v2.9h4.1v2.8h-6.9V2.2h6.9v2.8H114.1z"/>
	<path class="st0" d="M119.4,2.2h2.8v13.7h-2.8V2.2z"/>
	<path class="st0" d="M123.3,9.1c0-4.1,2.8-6.9,6.9-6.9v2.8c-2.8,0-4.1,1.6-4.1,4.1s1.4,4.1,4.1,4.1v2.8
		C126,15.9,123.3,13.2,123.3,9.1z"/>
	<path class="st0" d="M143.7,2.2v13.7H141v-5.7h-6.9v5.7h-2.8V2.2h2.8v5.3h6.9V2.2H143.7z"/>
	<path class="st0" d="M159,2.2v6.9c0,4.1-2.8,6.9-6.9,6.9c-4.1,0-6.9-2.8-6.9-6.9V2.2h2.8v6.9c0,2.7,1.4,4.1,4.1,4.1
		s4.1-1.5,4.1-4.1V2.2H159z"/>
	<path class="st0" d="M172.9,15.9h-3.3l-5.1-6.9h-1.1v6.9h-2.8V2.2h2.8v6.1l4.5-6.1h3.3l-5.1,6.9h1.7L172.9,15.9z"/>
</g>
</svg>
