<?xml version="1.0" encoding="utf-8"?>
<!-- Generator: Adobe Illustrator 25.1.0, SVG Export Plug-In . SVG Version: 6.00 Build 0)  -->
<svg version="1.1" id="Шар_1" xmlns="http://www.w3.org/2000/svg" xmlns:xlink="http://www.w3.org/1999/xlink" x="0px" y="0px"
	 viewBox="0 0 175 24.04" style="enable-background:new 0 0 175 24.04;" xml:space="preserve">
<style type="text/css">
	.st0{fill:#FFFFFF;}
</style>
<g>
	<path class="st0" d="M14.43,18.97H11.1L6.03,12.1H4.91v6.87H2.17V5.23h2.75v6.06l4.47-6.06h3.34L7.66,12.1h1.71L14.43,18.97z"/>
	<path class="st0" d="M21.5,15.34c0,2.06-1.37,3.63-3.34,3.63h-2.94v-2.75h2.94v0.39c0.59,0,0.98-0.59,0.98-1.28
		c0-0.69-0.39-1.28-0.98-1.28v-1.57c-1.96,0-3.34-1.57-3.34-3.63s1.37-3.63,3.34-3.63h2.94v2.75h-2.94V7.59
		c-0.59,0-0.98,0.59-0.98,1.28c0,0.69,0.39,1.28,0.98,1.28v1.57C20.12,11.71,21.5,13.28,21.5,15.34z"/>
	<path class="st0" d="M25.42,7.98v2.49h2.79v2.81h-2.79v2.94h4.12v2.75h-6.87V5.23h6.87v2.75H25.42z"/>
	<path class="st0" d="M47.6,5.23v13.74h-5.1L33.47,6.69v12.28h-2.75V5.23h5.02l9.11,12.4V5.23H47.6z"/>
	<path class="st0" d="M49.17,5.23h2.75v13.74h-2.75V5.23z"/>
	<path class="st0" d="M53.49,5.23h2.75v13.74h-2.75V5.23z"/>
	<path class="st0" d="M69.97,5.23v13.74h-2.75v-4.14h-4.2l-3.06,4.14h-3.34l5.06-6.87h-2.26l5.1-6.87H69.97z M62.79,12.08h4.44V6.12
		L62.79,12.08z"/>
	<path class="st0" d="M87.34,18.97H76.45V5.23h2.94c1.94,0.02,3.32,1.57,3.32,3.63c0,1.45-0.67,2.65-1.75,3.24h1.31L87.34,18.97z
		 M79.19,7.59v2.55h0.18c0.59,0,0.98-0.59,0.98-1.28c0-0.69-0.39-1.28-0.98-1.28H79.19z M82.27,16.62l-3.04-4.12h-0.04v4.12H82.27z"
		/>
	<path class="st0" d="M99.31,5.23v6.87c0,4.08-2.77,6.87-6.87,6.87s-6.87-2.79-6.87-6.87V5.23h2.75v6.87c0,2.65,1.45,4.12,4.12,4.12
		s4.12-1.47,4.12-4.12V5.23H99.31z"/>
	<path class="st0" d="M110.5,12.1c0,4.12-2.75,6.87-6.87,6.87h-2.75V5.23h2.75C107.75,5.23,110.5,7.98,110.5,12.1z M107.75,12.1
		c0-2.55-1.37-4.12-4.12-4.12v8.24C106.37,16.22,107.75,14.65,107.75,12.1z"/>
	<path class="st0" d="M114.42,7.98v2.49h2.79v2.81h-2.79v2.94h4.12v2.75h-6.87V5.23h6.87v2.75H114.42z"/>
	<path class="st0" d="M119.72,5.23h2.75v13.74h-2.75V5.23z"/>
	<path class="st0" d="M123.64,12.1c0-4.12,2.75-6.87,6.87-6.87v2.75c-2.75,0-4.12,1.57-4.12,4.12c0,2.55,1.37,4.12,4.12,4.12v2.75
		C126.39,18.97,123.64,16.22,123.64,12.1z"/>
	<path class="st0" d="M144.05,5.23v13.74h-2.75v-5.73h-6.87v5.73h-2.75V5.23h2.75v5.26h6.87V5.23H144.05z"/>
	<path class="st0" d="M159.36,5.23v6.87c0,4.08-2.77,6.87-6.87,6.87c-4.1,0-6.87-2.79-6.87-6.87V5.23h2.75v6.87
		c0,2.65,1.45,4.12,4.12,4.12s4.12-1.47,4.12-4.12V5.23H159.36z"/>
	<path class="st0" d="M173.2,18.97h-3.34l-5.06-6.87h-1.12v6.87h-2.75V5.23h2.75v6.06l4.47-6.06h3.34l-5.06,6.87h1.71L173.2,18.97z"
		/>
</g>
</svg>
